<svg width="63" height="51" viewBox="0 0 63 51" fill="none" xmlns="http://www.w3.org/2000/svg">
<path fill-rule="evenodd" clip-rule="evenodd" d="M62.866 10.8944C62.8666 10.9295 62.8669 10.9646 62.8669 10.9998C62.8669 13.8383 60.8154 16.2822 57.8669 17.3808V38L57.8669 36.9998L57.8669 30.9998L57.8669 24.9998V17.3531L53.8669 21.4998L57.8669 24.9998L53.8669 27.9998L57.8669 30.9998L53.8669 33.9998L57.8669 36.9998L56.5333 38H50.8669V17.3808C47.9184 16.2822 45.8669 13.8383 45.8669 10.9998C45.8669 9.81785 46.2226 8.7043 46.8507 7.72782C46.2798 7.39174 45.7343 7.03393 45.1935 6.67916C42.1074 4.65474 39.1716 2.72887 32.5 5.5C29.6495 6.68399 28.5015 8.36032 28.1314 10.1625L38.3961 19.6619C39.4187 20.6082 40 21.9383 40 23.3316V45.1462C40 47.9076 37.7614 50.1462 35 50.1462H13C10.2386 50.1462 8 47.9076 8 45.1462V23.293C8 21.9223 8.5627 20.6117 9.55649 19.6677L17.99 11.6569C21.8263 6.13348 31.3007 0 36 0C41.2033 0 46.89 2.1537 50.1903 4.90172C51.4238 4.32753 52.8489 3.99983 54.3669 3.99983C54.3999 3.99983 54.4329 3.99999 54.4659 4.0003C54.4985 3.99999 54.5312 3.99983 54.564 3.99983C59.1496 3.99983 62.8669 7.04042 62.8669 10.7912C62.8669 10.8257 62.8666 10.8601 62.866 10.8944ZM54 15C56.7614 15 59 13.2092 59 11C59 8.7909 56.7614 7.00004 54 7.00004C51.2386 7.00004 49 8.7909 49 11C49 13.2092 51.2386 15 54 15ZM15.5 27.646H13V28.646H15.191L16.0095 30.283L12.693 32.8624L12.5 33.0126V33.2571V42.146V44.3769L12.5 45.4184L12.5 45.7393L12.5 45.8271L12.5 45.85V45.8558V45.8573V45.8577V45.8577L13 45.8578L12.5 45.8578L12.5 46.2223L12.8472 46.3338L13 45.8578C12.8472 46.3338 12.8473 46.3339 12.8475 46.3339L12.8478 46.334L12.8486 46.3343L12.8508 46.335L12.8574 46.337L12.8791 46.3437C12.8974 46.3492 12.9231 46.3567 12.9558 46.3658C13.0212 46.384 13.1146 46.4085 13.232 46.4354C13.4665 46.4892 13.7988 46.5532 14.1968 46.5958C14.9882 46.6805 16.064 46.6835 17.1529 46.3338L17.5 46.2223V45.8578V42.646H30.5L30.5 44.0019L30.5 45.8578V46.2708L30.9056 46.3488C32.468 46.649 33.532 46.649 35.0943 46.3488L35.5 46.2708V45.8578L35.5 44.7003V44.6998V44.6996V44.6996V44.6985V44.6963V44.6828V44.5925L35.5 44.1629L35.5 44.146V42.146L35.5 33.646V33.4191L35.3293 33.2697L31.6782 30.075L32.75 28.646H35V27.646H32.5H32.25L32.1 27.846L31.0854 29.1988L29.9472 26.9224L29.837 26.7019L29.595 26.6551L29.5 27.146L29.5949 26.6551L29.5948 26.655L29.5942 26.6549L29.5921 26.6545L29.5844 26.6531L29.5551 26.6475L29.4433 26.6266C29.3464 26.6086 29.2059 26.5831 29.0308 26.5525C28.6807 26.4914 28.1912 26.4098 27.6333 26.3283C26.5243 26.1661 25.1195 26 24 26C22.8805 26 21.4757 26.1661 20.3667 26.3283C19.8088 26.4098 19.3193 26.4914 18.9692 26.5525C18.7941 26.5831 18.6536 26.6086 18.5567 26.6266L18.4449 26.6475L18.4156 26.6531L18.4079 26.6545L18.4058 26.6549L18.4053 26.655L18.4051 26.6551L18.5 27.146L18.405 26.6551L18.163 26.7019L18.0528 26.9224L16.75 29.528L15.9472 27.9224L15.809 27.646H15.5ZM17.7618 29.7404C22.5546 30.1145 25.4454 30.1145 30.2382 29.7404L29.164 27.592C29.0809 27.5769 28.9781 27.5585 28.8587 27.5376C28.5155 27.4776 28.0354 27.3977 27.4887 27.3177C26.3883 27.1569 25.0432 27 24 27C22.9568 27 21.6117 27.1569 20.5113 27.3177C19.9646 27.3977 19.4845 27.4776 19.1413 27.5376C19.0219 27.5585 18.9191 27.5769 18.836 27.592L17.7618 29.7404ZM30.8665 30.6935C25.4936 31.1307 22.4917 31.1301 17.1126 30.6918L13.9694 33.1366L18.2028 34.646H29.3005L29.3699 34.6257L29.7513 34.5141L31.0447 34.1358L33.8595 33.3124L30.8665 30.6935ZM34.5 34.1669L31.3255 35.0955L30.5 35.337V38.146V38.4845L30.1857 38.6102L27.6857 39.6102L27.5963 39.646H27.5H24.5H21H20.9189L20.8419 39.6203L17.8419 38.6203L17.5 38.5064V38.146V35.4571L13.5 34.0309V41.646H17H31H34.5V34.1669ZM29.4437 35.646L29.5 35.6295V37.8075L27.6667 38.5408L27.9851 37.2673L28.3904 35.646H29.3721H29.4437ZM27.3596 35.646H20.6404L20.9851 37.0247L21.3904 38.646H24.5H26.6096L27.0149 37.0247L27.3596 35.646ZM18.5 35.646H19.6096L20.0149 37.2673L20.294 38.3836L18.5 37.7856V35.646ZM14.3032 45.6014C13.9762 45.5664 13.7003 45.5152 13.5 45.4708L13.5 45.4184L13.5 44.3769L13.5 42.646H16.5V45.4796C15.7048 45.6738 14.9218 45.6677 14.3032 45.6014ZM31.5 44.0019L31.5 42.646H34.5V44.146L34.5 44.1629L34.5 44.5925V44.6828V44.6963V44.6985V44.6992V44.6996V44.6996V44.6998L34.5 45.4394C33.4125 45.6188 32.5875 45.6188 31.5 45.4394L31.5 44.0019ZM16 40.646C16 40.9221 15.7761 41.146 15.5 41.146C15.2239 41.146 15 40.9221 15 40.646C15 40.3698 15.2239 40.146 15.5 40.146C15.7761 40.146 16 40.3698 16 40.646ZM32.5 41.146C32.7761 41.146 33 40.9221 33 40.646C33 40.3698 32.7761 40.146 32.5 40.146C32.2239 40.146 32 40.3698 32 40.646C32 40.9221 32.2239 41.146 32.5 41.146ZM22.6235 38V36.1818H23.2378C23.3799 36.1818 23.4965 36.2061 23.5876 36.2546C23.6788 36.3026 23.7462 36.3686 23.79 36.4526C23.8338 36.5367 23.8557 36.6322 23.8557 36.7394C23.8557 36.8465 23.8338 36.9415 23.79 37.0243C23.7462 37.1072 23.6791 37.1723 23.5885 37.2197C23.5659 37.2313 23.5418 37.2415 23.516 37.2503L23.9268 38H23.6711L23.2877 37.2889C23.2726 37.2895 23.2571 37.2898 23.2414 37.2898H22.8437V38H22.6235ZM23.2343 37.0909H22.8437V36.3771H23.2307C23.329 36.3771 23.408 36.3922 23.4678 36.4224C23.5276 36.452 23.5711 36.494 23.5983 36.5485C23.6255 36.6029 23.6391 36.6666 23.6391 36.7394C23.6391 36.8122 23.6255 36.8749 23.5983 36.9276C23.5716 36.9797 23.5284 37.0199 23.4687 37.0483C23.4095 37.0767 23.3314 37.0909 23.2343 37.0909ZM25.2169 36.6364C25.2063 36.5464 25.1631 36.4766 25.0873 36.4269C25.0116 36.3771 24.9186 36.3523 24.8085 36.3523C24.7281 36.3523 24.6576 36.3653 24.5973 36.3914C24.5375 36.4174 24.4907 36.4532 24.457 36.4988C24.4238 36.5443 24.4073 36.5961 24.4073 36.6541C24.4073 36.7027 24.4188 36.7444 24.4419 36.7793C24.4656 36.8136 24.4958 36.8423 24.5324 36.8654C24.5691 36.8879 24.6076 36.9066 24.6479 36.9214C24.6881 36.9356 24.7251 36.9471 24.7588 36.956L24.9435 37.0057C24.9908 37.0181 25.0435 37.0353 25.1015 37.0572C25.1601 37.0791 25.216 37.109 25.2693 37.1469C25.3232 37.1841 25.3676 37.2321 25.4025 37.2907C25.4374 37.3493 25.4549 37.4212 25.4549 37.5064C25.4549 37.6047 25.4291 37.6934 25.3776 37.7727C25.3267 37.8521 25.2521 37.9151 25.1539 37.9618C25.0562 38.0086 24.9376 38.032 24.7979 38.032C24.6677 38.032 24.5549 38.011 24.4597 37.9689C24.365 37.9269 24.2904 37.8683 24.2359 37.7932C24.1821 37.718 24.1516 37.6307 24.1445 37.5313H24.3718C24.3777 37.5999 24.4008 37.6567 24.441 37.7017C24.4818 37.7461 24.5333 37.7793 24.5955 37.8012C24.6582 37.8225 24.7257 37.8331 24.7979 37.8331C24.8819 37.8331 24.9574 37.8195 25.0243 37.7923C25.0912 37.7645 25.1441 37.726 25.1832 37.6769C25.2223 37.6271 25.2418 37.5691 25.2418 37.5029C25.2418 37.4425 25.2249 37.3934 25.1912 37.3555C25.1574 37.3176 25.1131 37.2868 25.058 37.2632C25.003 37.2395 24.9435 37.2188 24.8796 37.201L24.6559 37.1371C24.5138 37.0963 24.4014 37.038 24.3185 36.9622C24.2356 36.8864 24.1942 36.7873 24.1942 36.6648C24.1942 36.563 24.2217 36.4742 24.2768 36.3985C24.3324 36.3221 24.407 36.2629 24.5005 36.2209C24.5946 36.1783 24.6996 36.157 24.8157 36.157C24.9328 36.157 25.037 36.178 25.1282 36.22C25.2193 36.2614 25.2915 36.3183 25.3448 36.3905C25.3986 36.4627 25.427 36.5446 25.43 36.6364H25.2169ZM18.5 41.146V40.146H29.5V41.146H18.5Z" fill="black"/>
<path d="M17.3894 23L18.5968 15.7273H21.1891C21.7525 15.7273 22.2035 15.8243 22.5421 16.0185C22.883 16.2102 23.1174 16.4777 23.2452 16.821C23.3754 17.1619 23.4038 17.5573 23.3304 18.0071C23.2547 18.4522 23.0949 18.8428 22.851 19.179C22.6096 19.5152 22.2864 19.7779 21.8816 19.9673C21.4791 20.1544 20.9962 20.2479 20.4327 20.2479H18.4689L18.6323 19.3033H20.4966C20.8541 19.3033 21.1524 19.2524 21.3915 19.1506C21.6306 19.0488 21.8176 18.9008 21.9526 18.7067C22.0899 18.5125 22.1799 18.2794 22.2225 18.0071C22.2675 17.7301 22.2544 17.4922 22.1834 17.2933C22.1124 17.0921 21.9739 16.9382 21.7679 16.8317C21.562 16.7228 21.2791 16.6683 20.9192 16.6683H19.5414L18.4867 23H17.3894ZM21.5229 19.7188L22.7765 23H21.5265L20.3049 19.7188H21.5229ZM28.7113 17.6804C28.7137 17.3229 28.5977 17.0495 28.3633 16.8601C28.1313 16.6707 27.8069 16.576 27.3903 16.576C27.092 16.576 26.8256 16.6233 26.5913 16.718C26.3593 16.8104 26.1699 16.9382 26.0231 17.1016C25.8787 17.2625 25.7899 17.446 25.7567 17.652C25.726 17.8248 25.7414 17.974 25.8029 18.0994C25.8668 18.2249 25.958 18.3303 26.0763 18.4155C26.1971 18.4983 26.3297 18.5682 26.4741 18.625C26.6185 18.6795 26.7582 18.7244 26.8931 18.7599L27.5749 18.9446C27.7951 19.0014 28.0188 19.0784 28.2461 19.1754C28.4734 19.2725 28.6781 19.4003 28.8604 19.5589C29.0427 19.7176 29.1789 19.9141 29.2688 20.1484C29.3588 20.3828 29.3765 20.6634 29.3221 20.9901C29.2511 21.402 29.0842 21.7678 28.8214 22.0874C28.5586 22.407 28.2118 22.6591 27.7809 22.8438C27.35 23.0284 26.8505 23.1207 26.2823 23.1207C25.7378 23.1207 25.2797 23.0343 24.908 22.8615C24.5387 22.6887 24.2676 22.4437 24.0948 22.1264C23.922 21.8068 23.8604 21.428 23.9102 20.9901H25.0146C24.9885 21.2528 25.0359 21.4718 25.1566 21.647C25.2797 21.8198 25.4525 21.9489 25.6751 22.0341C25.8976 22.117 26.1497 22.1584 26.4315 22.1584C26.744 22.1584 27.0292 22.1098 27.2873 22.0128C27.5453 21.9134 27.7584 21.776 27.9265 21.6009C28.0946 21.4233 28.1976 21.2161 28.2354 20.9794C28.2733 20.764 28.2425 20.5876 28.1431 20.4503C28.046 20.313 27.8993 20.1993 27.7028 20.1094C27.5086 20.0194 27.2873 19.9401 27.0387 19.8714L26.2184 19.6371C25.6621 19.4785 25.2406 19.2453 24.9542 18.9375C24.6677 18.6297 24.5647 18.2225 24.6452 17.7159C24.7163 17.2969 24.8915 16.9311 25.1708 16.6186C25.4502 16.3061 25.7982 16.0634 26.2148 15.8906C26.6315 15.7154 27.0837 15.6278 27.5714 15.6278C28.0638 15.6278 28.4828 15.7154 28.8285 15.8906C29.1741 16.0658 29.4298 16.3073 29.5955 16.6151C29.7612 16.9228 29.8192 17.2779 29.7695 17.6804H28.7113Z" fill="white"/>
</svg>
